# File created by Blade
# Date/Time:  Wed Jan 21 17:34:04 2015
# Frame Rate: 120.000 fps
#------------------------------------------------------
:FULLY-SPECIFIED
:DEGREES
1169
root 18.528895 5.772328 -17.215364 -190.626734 -0.324771 -132.018764
Spine 29.826129 -4.490545 25.632516
Head 10.763824 -28.710856 26.108900
LeftShoulder 0.013974 -11.639965 16.613047
LeftArm -41.139266 17.219402 -101.405448
LeftForeArm -16.301777 -0.000000 63.587184
LeftHand -14.203741 0.000000 27.595628
LeftHandThumb1 -26.253704 0.000000 33.147579
RightShoulder -16.635304 -10.779959 15.303165
RightArm 0.098684 -2.462391 66.777126
RightForeArm -18.539159 -0.000000 31.108545
RightHand -8.421541 -0.000000 7.672006
RightHandThumb1 -24.326973 -0.000000 -32.862282
LeftUpLeg -105.273856 3.801236 -39.346065
LeftLeg 131.399317 -0.000000 -0.000000
LeftFoot 32.250118 17.217561 9.864145
LeftToeBase 25.178652 -0.000000 -0.000000
RightUpLeg -28.745674 -8.509491 -24.767634
RightLeg 131.604956 -0.000000 -0.000000
RightFoot 30.990716 -28.268154 -19.574668
RightToeBase 9.673783 -0.000000 -0.000000
1170
root 18.538198 5.778315 -17.178584 -191.333100 0.186127 -132.013282
Spine 30.634143 -4.687055 25.558203
Head 11.306990 -28.714976 25.824830
LeftShoulder 0.265277 -11.666076 16.819910
LeftArm -41.120487 17.109031 -101.547377
LeftForeArm -16.902679 -0.000000 63.791415
LeftHand -14.399749 0.000000 27.697285
LeftHandThumb1 -26.253704 0.000000 33.147579
RightShoulder -16.768051 -10.972098 15.439425
RightArm 0.485561 -3.382393 66.550358
RightForeArm -19.017948 -0.000000 31.319888
RightHand -8.379027 -0.000000 7.624260
RightHandThumb1 -24.326973 -0.000000 -32.862282
LeftUpLeg -105.161408 4.695909 -39.001322
LeftLeg 131.456697 -0.000000 -0.000000
LeftFoot 32.314195 16.597161 9.493504
LeftToeBase 25.214964 -0.000000 -0.000000
RightUpLeg -29.930071 -8.371330 -24.962122
RightLeg 132.820829 -0.000000 -0.000000
RightFoot 28.837410 -27.919450 -17.911930
RightToeBase 10.250431 -0.000000 -0.000000
1171
root 18.553474 5.786307 -17.137516 -192.041351 0.666185 -131.996874
Spine 31.465474 -4.911682 25.474131
Head 11.754050 -28.663978 25.623860
LeftShoulder 0.465193 -11.733737 17.076614
LeftArm -41.101627 17.019909 -101.737049
LeftForeArm -17.259395 -0.000000 63.938990
LeftHand -14.590829 -0.000000 27.797219
LeftHandThumb1 -26.253704 0.000000 33.147579
RightShoulder -16.923882 -11.096803 15.571999
RightArm 0.881044 -4.433075 66.308643
RightForeArm -19.495575 -0.000000 31.486481
RightHand -8.241209 -0.000000 7.671110
RightHandThumb1 -24.326973 -0.000000 -32.862282
LeftUpLeg -105.008325 5.513240 -38.821341
LeftLeg 131.454058 -0.000000 -0.000000
LeftFoot 32.427968 16.698049 9.302373
LeftToeBase 25.247473 -0.000000 -0.000000
RightUpLeg -31.119801 -8.268314 -25.132245
RightLeg 133.963290 -0.000000 -0.000000
RightFoot 26.807293 -27.728273 -16.272355
RightToeBase 10.106094 -0.000000 -0.000000
1172
root 18.570451 5.790505 -17.096662 -192.755253 1.125790 -132.019216
Spine 32.312149 -5.130941 25.359645
Head 12.099731 -28.615220 25.415348
LeftShoulder 0.620001 -11.697025 17.335387
LeftArm -40.945156 17.087537 -101.952040
LeftForeArm -17.353965 -0.000000 64.038527
LeftHand -14.853438 0.000000 28.035913
LeftHandThumb1 -26.253704 0.000000 33.147579
RightShoulder -17.055940 -11.147748 15.697833
RightArm 1.189275 -5.525238 66.064428
RightForeArm -20.119718 -0.000000 31.664148
RightHand -8.161197 0.000000 7.611107
RightHandThumb1 -24.326973 -0.000000 -32.862282
LeftUpLeg -104.829130 6.301657 -38.728012
LeftLeg 131.446610 -0.000000 -0.000000
LeftFoot 32.521818 16.924134 9.233557
LeftToeBase 25.243759 -0.000000 -0.000000
RightUpLeg -32.422443 -8.387653 -25.231900
RightLeg 134.958028 -0.000000 -0.000000
RightFoot 26.214341 -27.682064 -16.121233
RightToeBase 9.885080 -0.000000 -0.000000
1173
root 18.585650 5.791913 -17.054637 -193.474093 1.546317 -132.105081
Spine 33.156422 -5.371078 25.161759
Head 12.458352 -28.589415 25.197566
LeftShoulder 0.811698 -11.823810 17.575179
LeftArm -40.950687 17.086654 -102.209407
LeftForeArm -17.544601 -0.000000 64.023949
LeftHand -14.933416 0.000000 28.461033
LeftHandThumb1 -26.253704 0.000000 33.147579
RightShoulder -17.116956 -11.163884 15.798238
RightArm 1.447289 -6.439366 65.875785
RightForeArm -20.845538 0.000000 31.821502
RightHand -8.050313 -0.000000 7.800513
RightHandThumb1 -24.326973 -0.000000 -32.862282
LeftUpLeg -104.618535 7.084338 -38.670944
LeftLeg 131.418023 -0.000000 -0.000000
LeftFoot 32.689252 17.101754 9.159821
LeftToeBase 25.284945 -0.000000 -0.000000
RightUpLeg -33.728950 -8.515647 -25.414601
RightLeg 135.888265 -0.000000 -0.000000
RightFoot 25.564484 -27.687199 -15.963020
RightToeBase 9.316562 -0.000000 -0.000000
